<?xml version="1.0" encoding="UTF-8" standalone="no"?>
<svg
   height="703"
   width="1109"
   version="1.1"
   id="svg6"
   sodipodi:docname="hold-my-place-logo.svg"
   inkscape:version="1.2.2 (b0a8486541, 2022-12-01)"
   xmlns:inkscape="http://www.inkscape.org/namespaces/inkscape"
   xmlns:sodipodi="http://sodipodi.sourceforge.net/DTD/sodipodi-0.dtd"
   xmlns="http://www.w3.org/2000/svg"
   xmlns:svg="http://www.w3.org/2000/svg">
  <defs
     id="defs10" />
  <sodipodi:namedview
     id="namedview8"
     pagecolor="#ffffff"
     bordercolor="#666666"
     borderopacity="1.0"
     inkscape:showpageshadow="2"
     inkscape:pageopacity="0.0"
     inkscape:pagecheckerboard="0"
     inkscape:deskcolor="#d1d1d1"
     showgrid="false"
     inkscape:zoom="1.28375"
     inkscape:cx="359.88315"
     inkscape:cy="292.50243"
     inkscape:window-width="3840"
     inkscape:window-height="2091"
     inkscape:window-x="0"
     inkscape:window-y="32"
     inkscape:window-maximized="1"
     inkscape:current-layer="svg6" />
  <rect
     fill="#dddddd"
     height="704.29962"
     width="1109.6156"
     x="0"
     y="0"
     id="rect2"
     style="stroke-width:1.10503" />
  <path
     d="m 332.45536,312.56882 v 63.56111 H 322.12668 V 347.8364 H 290.2137 v 28.29353 h -10.37282 v -63.56111 h 10.37282 v 27.80798 h 31.91298 v -27.80798 z m 28.38181,18.71521 q 4.98779,0 9.02658,1.63317 4.03878,1.63316 6.88579,4.63466 2.847,3.0015 4.39189,7.28305 1.54488,4.28155 1.54488,9.62244 0,5.3409 -1.54488,9.62245 -1.54489,4.28155 -4.39189,7.30511 -2.84701,3.02357 -6.88579,4.65674 -4.03879,1.63316 -9.02658,1.63316 -5.03192,0 -9.0707,-1.63316 -4.03878,-1.63317 -6.90785,-4.65674 -2.86908,-3.02356 -4.41398,-7.30511 -1.54488,-4.28155 -1.54488,-9.62245 0,-5.34089 1.54488,-9.62244 1.5449,-4.28155 4.41398,-7.28305 2.86907,-3.0015 6.90785,-4.63466 4.03878,-1.63317 9.0707,-1.63317 z m 0,38.97532 q 6.09128,0 9.0707,-4.08292 2.97943,-4.08291 2.97943,-11.67494 0,-7.59202 -2.97943,-11.71908 -2.97942,-4.12705 -9.0707,-4.12705 -6.17954,0 -9.18104,4.12705 -3.00151,4.12706 -3.00151,11.71908 0,7.59203 3.00151,11.67494 3.0015,4.08292 9.18104,4.08292 z m 40.56437,-59.10301 v 65.3267 h -9.49002 v -65.3267 z m 38.53393,31.3833 q -1.98626,-2.56009 -4.36983,-3.57531 -2.38354,-1.01521 -5.16434,-1.01521 -5.5616,0 -8.69551,4.08292 -3.13391,4.08292 -3.13391,12.07219 0,4.14914 0.70623,7.08442 0.70624,2.93529 2.03042,4.78915 1.32419,1.85387 3.2222,2.69252 1.898,0.83866 4.28154,0.83866 3.61946,0 6.24577,-1.56696 2.62633,-1.56696 4.87743,-4.43604 z m 9.49003,-31.3833 v 65.3267 h -5.73816 q -1.89801,0 -2.42768,-1.80972 l -0.83865,-4.8995 q -2.82494,3.31047 -6.42232,5.34089 -3.59739,2.03044 -8.36447,2.03044 -3.79601,0 -6.88579,-1.52283 -3.08977,-1.52282 -5.29676,-4.43604 -2.20698,-2.91321 -3.42082,-7.21683 -1.21384,-4.30362 -1.21384,-9.86522 0,-5.03192 1.34626,-9.31346 1.34626,-4.28155 3.86222,-7.43753 2.51596,-3.15599 6.11334,-4.94365 3.59739,-1.78765 8.05549,-1.78765 3.97257,0 6.75337,1.25798 2.7808,1.25798 4.98778,3.5091 v -24.23268 z m 38.6222,65.85638 v -45.02245 h 5.73816 q 1.94215,0 2.47182,1.80973 l 0.61797,3.92843 q 1.2359,-1.41247 2.56011,-2.58218 1.32419,-1.16969 2.84701,-2.03042 1.52282,-0.86072 3.26633,-1.34627 1.7435,-0.48552 3.77394,-0.48552 2.16285,0 3.97257,0.61795 1.80971,0.61795 3.20011,1.76558 1.3904,1.14763 2.40563,2.7808 1.01521,1.63317 1.6773,3.6636 1.0152,-2.33941 2.56011,-4.01672 1.54488,-1.67731 3.44289,-2.73666 1.89799,-1.05935 4.03878,-1.56695 2.14077,-0.50761 4.34774,-0.50761 3.61947,0 6.46647,1.14763 2.84702,1.14763 4.81123,3.33255 1.9642,2.18491 2.97943,5.36296 1.01522,3.17806 1.01522,7.23891 v 28.64664 h -9.49004 v -28.64664 q 0,-4.76708 -2.05249,-7.1727 -2.0525,-2.4056 -6.06921,-2.4056 -1.80972,0 -3.39875,0.61795 -1.58903,0.61795 -2.7808,1.80972 -1.19177,1.19178 -1.87595,2.97943 -0.68415,1.78766 -0.68415,4.1712 v 28.64664 h -9.49003 v -28.64664 q 0,-4.94364 -1.98628,-7.26097 -1.98629,-2.31733 -5.82644,-2.31733 -2.64838,0 -4.8995,1.34625 -2.25112,1.34626 -4.14913,3.68567 v 33.19302 z m 110.34916,-45.37557 -24.80647,57.82297 q -0.48555,1.0152 -1.16969,1.58902 -0.68417,0.57381 -2.09666,0.57381 h -7.01821 l 8.29828,-18.00898 -18.36212,-41.97682 h 8.25414 q 1.19177,0 1.83179,0.55174 0.64001,0.55176 0.94901,1.30213 l 10.72594,25.55686 q 0.39725,1.10349 0.7283,2.18491 0.33105,1.08142 0.64002,2.22905 0.35312,-1.14763 0.70622,-2.25112 0.35313,-1.10349 0.79451,-2.20698 l 10.28456,-25.51272 q 0.30896,-0.79452 1.03726,-1.32419 0.72831,-0.52968 1.61112,-0.52968 z m 48.28881,33.9434 q 1.98629,2.5601 4.34777,3.59738 2.36147,1.03728 5.23055,1.03728 5.5616,0 8.67345,-4.06085 3.11184,-4.06084 3.11184,-12.09426 0,-4.14913 -0.70621,-7.08442 -0.70626,-2.93529 -2.03045,-4.78915 -1.32419,-1.85387 -3.22219,-2.69252 -1.89802,-0.83865 -4.28156,-0.83865 -3.61945,0 -6.24575,1.56695 -2.62632,1.56696 -4.87745,4.48018 z m -0.48552,-27.19002 q 2.82493,-3.31048 6.42232,-5.3409 3.59737,-2.03043 8.36445,-2.03043 3.79602,0 6.88582,1.52282 3.08976,1.52282 5.29676,4.43604 2.20696,2.91321 3.42081,7.21683 1.21386,4.30362 1.21386,9.86522 0,4.98778 -1.34628,9.2914 -1.34627,4.30361 -3.86223,7.4596 -2.51596,3.15598 -6.09127,4.94364 -3.57531,1.78766 -8.07756,1.78766 -3.97257,0 -6.73129,-1.28005 -2.75874,-1.28005 -5.00987,-3.53118 v 19.11248 h -9.49001 v -59.9858 h 5.73815 q 1.94215,0 2.47183,1.80972 z m 50.45168,-27.23418 v 65.3267 h -9.49004 v -65.3267 z m 32.97233,46.03767 q -5.07606,0.17656 -8.56309,0.81659 -3.48704,0.64002 -5.64988,1.63317 -2.16284,0.99314 -3.11185,2.36147 -0.94901,1.36832 -0.94901,3.0015 0,1.58902 0.50763,2.71458 0.50759,1.12557 1.41245,1.85387 0.90488,0.7283 2.1187,1.05935 1.21385,0.33105 2.67046,0.33105 3.70773,0 6.37819,-1.3904 2.67043,-1.3904 5.1864,-4.03878 z m -25.15961,-19.06833 q 7.63617,-7.10649 18.18555,-7.10649 3.88429,0 6.90785,1.25797 3.02358,1.25798 5.07607,3.55325 2.0525,2.29526 3.1339,5.45124 1.08143,3.15599 1.08143,6.99614 v 28.60251 h -4.23741 q -1.36832,0 -2.07457,-0.41933 -0.70622,-0.41933 -1.19177,-1.69938 l -0.92693,-3.66359 q -1.72145,1.54488 -3.39874,2.75872 -1.67732,1.21385 -3.46497,2.0525 -1.78766,0.83865 -3.84015,1.25798 -2.0525,0.41933 -4.52432,0.41933 -2.73665,0 -5.09814,-0.75038 -2.36146,-0.75037 -4.08291,-2.27319 -1.72144,-1.52282 -2.71459,-3.77394 -0.99314,-2.25113 -0.99314,-5.29676 0,-2.60424 1.3904,-5.07606 1.3904,-2.47182 4.59053,-4.43604 3.20011,-1.96421 8.43066,-3.24426 5.23055,-1.28005 12.91086,-1.45661 v -3.0015 q 0,-4.85536 -2.07455,-7.2389 -2.07458,-2.38354 -6.09128,-2.38354 -2.73666,0 -4.59053,0.68416 -1.85387,0.68416 -3.22219,1.47868 -1.36834,0.79451 -2.42769,1.47868 -1.05936,0.68416 -2.25113,0.68416 -0.97106,0 -1.65523,-0.50761 -0.68415,-0.5076 -1.12557,-1.25797 z m 74.77259,2.69252 q -0.44139,0.57381 -0.83864,0.88279 -0.39726,0.30898 -1.14764,0.30898 -0.75038,0 -1.56695,-0.52968 -0.81659,-0.52967 -1.94216,-1.1697 -1.12556,-0.64002 -2.71458,-1.1697 -1.58903,-0.52968 -3.97257,-0.52968 -3.08977,0 -5.40711,1.1035 -2.31733,1.10349 -3.8843,3.15598 -1.56695,2.0525 -2.33939,4.98779 -0.77246,2.93528 -0.77246,6.59887 0,3.79602 0.83867,6.75337 0.83865,2.95736 2.4056,4.98779 1.56697,2.03042 3.79602,3.08977 2.22904,1.05935 5.00984,1.05935 2.73667,0 4.45811,-0.66209 1.72145,-0.6621 2.86909,-1.45661 1.14762,-0.79452 1.96421,-1.45661 0.81659,-0.6621 1.74352,-0.6621 1.14762,0 1.76558,0.8828 l 2.69251,3.48703 q -1.63316,1.98629 -3.61944,3.35461 -1.98629,1.36834 -4.19328,2.22906 -2.20697,0.86072 -4.59051,1.2359 -2.38354,0.37519 -4.81124,0.37519 -4.19325,0 -7.83477,-1.56695 -3.64152,-1.56696 -6.35611,-4.54639 -2.71459,-2.97942 -4.28156,-7.28304 -1.56695,-4.30362 -1.56695,-9.82108 0,-4.98778 1.41247,-9.24725 1.41246,-4.25948 4.12705,-7.34926 2.71458,-3.08978 6.73131,-4.83329 4.0167,-1.74352 9.26933,-1.74352 4.8995,0 8.62929,1.58903 3.72981,1.58903 6.64302,4.50224 z m 41.40299,8.60723 q 0,-2.38354 -0.68413,-4.43603 -0.68413,-2.0525 -2.00832,-3.57532 -1.32419,-1.52282 -3.28844,-2.38354 -1.96419,-0.86072 -4.52431,-0.86072 -5.16434,0 -8.1217,2.95735 -2.95734,2.95737 -3.75185,8.29826 z m -22.64359,5.82644 q 0.17654,3.84015 1.19177,6.64302 1.0152,2.80286 2.71459,4.65672 1.69936,1.85387 4.06083,2.75874 2.36149,0.90485 5.27471,0.90485 2.7808,0 4.8112,-0.64002 2.03046,-0.64003 3.53114,-1.41246 1.50078,-0.77245 2.56014,-1.41247 1.05935,-0.64003 1.94211,-0.64003 1.1477,0 1.76562,0.88279 l 2.69255,3.48703 q -1.67738,1.98629 -3.79608,3.35461 -2.1187,1.36834 -4.50224,2.22906 -2.38355,0.86072 -4.89951,1.2359 -2.51591,0.37519 -4.89945,0.37519 -4.67882,0 -8.67344,-1.56695 -3.99466,-1.56696 -6.92994,-4.61259 -2.93528,-3.04564 -4.59051,-7.54789 -1.65524,-4.50224 -1.65524,-10.37282 0,-4.6788 1.47866,-8.73965 1.47868,-4.06085 4.23741,-7.06235 2.75875,-3.0015 6.70923,-4.74501 3.9505,-1.74351 8.93828,-1.74351 4.14913,0 7.6803,1.34625 3.53114,1.34626 6.09127,3.9505 2.56014,2.60424 3.99461,6.37818 1.43457,3.77394 1.43457,8.58517 0,2.20698 -0.4855,2.95735 -0.48561,0.75038 -1.76562,0.75038 z"
     fill="#999999"
     id="path4"
     style="stroke-width:1.05935" />
</svg>
