<svg height="800" width="800" xmlns="http://www.w3.org/2000/svg">
<rect fill="#dddddd" height="800" width="800" x="0" y="0"/>
<path d="M56.91667 40L56.91667 100L47.16667 100L47.16667 73.291664L17.041668 73.291664L17.041668 100L7.250002 100L7.250002 40L17.041668 40L17.041668 66.25L47.16667 66.25L47.16667 40L56.91667 40ZM83.70834 57.666664Q88.41668 57.666664,92.22919 59.208332Q96.04169 60.749996,98.72919 63.583332Q101.41669 66.416664,102.875015 70.45833Q104.33335 74.5,104.33335 79.541664Q104.33335 84.58333,102.875015 88.625Q101.41669 92.666664,98.72919 95.52083Q96.04169 98.375,92.22919 99.916664Q88.41668 101.45833,83.70834 101.45833Q78.95834 101.45833,75.14584 99.916664Q71.33334 98.375,68.625015 95.52083Q65.91668 92.666664,64.45834 88.625Q63.00001 84.58333,63.00001 79.541664Q63.00001 74.5,64.45834 70.45833Q65.91668 66.416664,68.625015 63.583332Q71.33334 60.749996,75.14584 59.208332Q78.95834 57.666664,83.70834 57.666664ZM83.70834 94.45833Q89.45835 94.45833,92.27084 90.604164Q95.08334 86.75,95.08334 79.58333Q95.08334 72.416664,92.27084 68.52083Q89.45835 64.625,83.70834 64.625Q77.875015 64.625,75.04168 68.52083Q72.20834 72.416664,72.20834 79.58333Q72.20834 86.75,75.04168 90.604164Q77.875015 94.45833,83.70834 94.45833ZM122.00003 38.666664L122.00003 100.33333L113.041695 100.33333L113.041695 38.666664L122.00003 38.666664ZM158.37503 68.291664Q156.50005 65.875,154.25003 64.916664Q152.00003 63.958332,149.37503 63.958332Q144.12503 63.958332,141.1667 67.8125Q138.20837 71.666664,138.20837 79.20833Q138.20837 83.125,138.87503 85.89583Q139.5417 88.666664,140.7917 90.416664Q142.0417 92.166664,143.83337 92.95833Q145.62503 93.75,147.87503 93.75Q151.2917 93.75,153.77087 92.27083Q156.25005 90.791664,158.37503 88.08333L158.37503 68.291664ZM167.33337 38.666664L167.33337 100.33333L161.9167 100.33333Q160.12503 100.33333,159.62503 98.625L158.83337 94Q156.1667 97.125,152.77087 99.041664Q149.37503 100.95833,144.87503 100.95833Q141.2917 100.95833,138.37503 99.52083Q135.45837 98.08333,133.37503 95.33333Q131.2917 92.58333,130.14587 88.52083Q129.00003 84.45833,129.00003 79.20833Q129.00003 74.45833,130.27087 70.416664Q131.5417 66.375,133.9167 63.395832Q136.2917 60.416664,139.68753 58.729164Q143.08337 57.041664,147.2917 57.041664Q151.0417 57.041664,153.6667 58.229164Q156.2917 59.416664,158.37503 61.541664L158.37503 38.666664L167.33337 38.666664ZM203.7917 100.83333L203.7917 58.333332L209.20837 58.333332Q211.0417 58.333332,211.5417 60.041664L212.12505 63.749996Q213.2917 62.416664,214.54172 61.312496Q215.79172 60.208332,217.22922 59.395832Q218.66672 58.583332,220.31255 58.124996Q221.95837 57.666664,223.87505 57.666664Q225.91672 57.666664,227.62505 58.249996Q229.33337 58.833332,230.64587 59.916664Q231.95837 60.999996,232.91672 62.541664Q233.87505 64.08333,234.50005 66Q235.45837 63.791664,236.91672 62.208332Q238.37505 60.624996,240.16672 59.624996Q241.95837 58.624996,243.97922 58.145832Q246.00005 57.666664,248.08337 57.666664Q251.50005 57.666664,254.18755 58.749996Q256.87506 59.833332,258.72922 61.895832Q260.58337 63.958332,261.54172 66.95833Q262.50006 69.95833,262.50006 73.791664L262.50006 100.83333L253.54172 100.83333L253.54172 73.791664Q253.54172 69.291664,251.60422 67.02083Q249.66672 64.75,245.87505 64.75Q244.16672 64.75,242.66672 65.33333Q241.16672 65.916664,240.04172 67.041664Q238.91672 68.166664,238.27087 69.854164Q237.62505 71.541664,237.62505 73.791664L237.62505 100.83333L228.66672 100.83333L228.66672 73.791664Q228.66672 69.125,226.79172 66.9375Q224.91672 64.75,221.29172 64.75Q218.79172 64.75,216.66672 66.02083Q214.54172 67.291664,212.75005 69.5L212.75005 100.83333L203.7917 100.83333ZM307.95837 58L284.54172 112.583336Q284.08337 113.54167,283.43756 114.083336Q282.79172 114.625,281.45837 114.625L274.83337 114.625L282.66672 97.625L265.33337 58L273.12506 58Q274.25006 58,274.85422 58.520832Q275.45837 59.041664,275.75006 59.75L285.87506 83.875Q286.25006 84.916664,286.56256 85.9375Q286.87506 86.95833,287.16672 88.041664Q287.50006 86.95833,287.83337 85.916664Q288.16672 84.875,288.58337 83.83333L298.29172 59.75Q298.58337 59,299.27087 58.5Q299.95837 58,300.79172 58L307.95837 58ZM353.54172 90.041664Q355.41672 92.45833,357.6459 93.4375Q359.87506 94.416664,362.5834 94.416664Q367.8334 94.416664,370.7709 90.58333Q373.7084 86.75,373.7084 79.166664Q373.7084 75.25,373.04175 72.479164Q372.37506 69.70833,371.12506 67.95833Q369.87506 66.20833,368.0834 65.416664Q366.29172 64.625,364.04172 64.625Q360.62506 64.625,358.1459 66.104164Q355.66672 67.58333,353.54172 70.33333L353.54172 90.041664ZM353.0834 64.375Q355.75006 61.249996,359.1459 59.333332Q362.54172 57.416664,367.04172 57.416664Q370.62506 57.416664,373.54175 58.854164Q376.4584 60.291664,378.54175 63.041664Q380.62506 65.791664,381.7709 69.854164Q382.91675 73.916664,382.91675 79.166664Q382.91675 83.875,381.6459 87.9375Q380.37506 92,378.00006 94.979164Q375.62506 97.95833,372.25006 99.64583Q368.87506 101.33333,364.62506 101.33333Q360.87506 101.33333,358.2709 100.125Q355.66672 98.916664,353.54172 96.791664L353.54172 114.83333L344.5834 114.83333L344.5834 58.208332L350.00006 58.208332Q351.8334 58.208332,352.3334 59.916664L353.0834 64.375ZM400.70844 38.666664L400.70844 100.33333L391.7501 100.33333L391.7501 38.666664L400.70844 38.666664ZM431.83344 82.125Q427.04178 82.291664,423.75012 82.89583Q420.45844 83.5,418.41678 84.4375Q416.37512 85.375,415.47928 86.666664Q414.58344 87.95833,414.58344 89.5Q414.58344 91,415.06262 92.0625Q415.54178 93.125,416.39594 93.8125Q417.25012 94.5,418.39594 94.8125Q419.54178 95.125,420.91678 95.125Q424.41678 95.125,426.93762 93.8125Q429.45844 92.5,431.83344 90L431.83344 82.125ZM408.08344 64.125Q415.29178 57.416664,425.25012 57.416664Q428.91678 57.416664,431.77094 58.604164Q434.62512 59.791664,436.56262 61.958332Q438.50012 64.125,439.52094 67.104164Q440.54178 70.08333,440.54178 73.70833L440.54178 100.70833L436.54178 100.70833Q435.25012 100.70833,434.58344 100.3125Q433.91678 99.916664,433.45844 98.70833L432.58344 95.25Q430.95844 96.70833,429.37512 97.854164Q427.79178 99,426.10428 99.791664Q424.41678 100.58333,422.47928 100.979164Q420.54178 101.375,418.20844 101.375Q415.62512 101.375,413.39594 100.666664Q411.16678 99.95833,409.54178 98.52083Q407.91678 97.08333,406.97928 94.95833Q406.04178 92.83333,406.04178 89.95833Q406.04178 87.5,407.35428 85.166664Q408.66678 82.83333,411.68762 80.979164Q414.70844 79.125,419.64594 77.916664Q424.58344 76.70833,431.83344 76.541664L431.83344 73.70833Q431.83344 69.125,429.87512 66.875Q427.91678 64.625,424.12512 64.625Q421.54178 64.625,419.79178 65.27083Q418.04178 65.916664,416.75012 66.666664Q415.45844 67.416664,414.45844 68.0625Q413.45844 68.70833,412.33344 68.70833Q411.41678 68.70833,410.77094 68.229164Q410.12512 67.75,409.70844 67.041664L408.08344 64.125ZM478.66678 66.666664Q478.25012 67.20833,477.87512 67.5Q477.50012 67.791664,476.79178 67.791664Q476.08344 67.791664,475.31262 67.291664Q474.54178 66.791664,473.47928 66.1875Q472.41678 65.58333,470.91678 65.08333Q469.41678 64.58333,467.16678 64.58333Q464.25012 64.58333,462.06262 65.625Q459.87512 66.666664,458.39594 68.604164Q456.91678 70.541664,456.18762 73.3125Q455.45844 76.08333,455.45844 79.541664Q455.45844 83.125,456.25012 85.916664Q457.04178 88.70833,458.52094 90.625Q460.00012 92.541664,462.10428 93.541664Q464.20844 94.541664,466.83344 94.541664Q469.41678 94.541664,471.04178 93.916664Q472.66678 93.291664,473.75012 92.541664Q474.83344 91.791664,475.60428 91.166664Q476.37512 90.541664,477.25012 90.541664Q478.33344 90.541664,478.91678 91.375L481.45844 94.666664Q479.91678 96.541664,478.04178 97.83333Q476.16678 99.125,474.08344 99.9375Q472.00012 100.75,469.75012 101.104164Q467.50012 101.45833,465.20844 101.45833Q461.25012 101.45833,457.81262 99.979164Q454.37512 98.5,451.81262 95.6875Q449.25012 92.875,447.77094 88.8125Q446.29178 84.75,446.29178 79.541664Q446.29178 74.83333,447.62512 70.8125Q448.95844 66.791664,451.52094 63.874996Q454.08344 60.958332,457.87512 59.312496Q461.66678 57.666664,466.62512 57.666664Q471.25012 57.666664,474.77094 59.166664Q478.29178 60.666664,481.04178 63.416664L478.66678 66.666664ZM517.7501 74.791664Q517.7501 72.541664,517.1043 70.604164Q516.4585 68.666664,515.2085 67.229164Q513.9585 65.791664,512.1043 64.979164Q510.25015 64.166664,507.83347 64.166664Q502.95847 64.166664,500.1668 66.95833Q497.37515 69.75,496.62515 74.791664L517.7501 74.791664ZM496.37515 80.291664Q496.5418 83.916664,497.50015 86.5625Q498.45847 89.20833,500.06265 90.95833Q501.6668 92.70833,503.89597 93.5625Q506.12515 94.416664,508.87515 94.416664Q511.50015 94.416664,513.4168 93.8125Q515.3335 93.20833,516.7501 92.479164Q518.1668 91.75,519.1668 91.14583Q520.1668 90.541664,521.0001 90.541664Q522.0835 90.541664,522.6668 91.375L525.2085 94.666664Q523.6251 96.541664,521.6251 97.83333Q519.6251 99.125,517.3751 99.9375Q515.1251 100.75,512.7501 101.104164Q510.37515 101.45833,508.12515 101.45833Q503.70847 101.45833,499.93765 99.979164Q496.1668 98.5,493.39597 95.625Q490.62515 92.75,489.06265 88.5Q487.50015 84.25,487.50015 78.70833Q487.50015 74.291664,488.89597 70.45833Q490.2918 66.625,492.89597 63.791664Q495.50015 60.958332,499.2293 59.312496Q502.95847 57.666664,507.6668 57.666664Q511.58347 57.666664,514.9168 58.937496Q518.2501 60.208332,520.6668 62.666664Q523.0835 65.125,524.4376 68.6875Q525.7918 72.25,525.7918 76.791664Q525.7918 78.875,525.3335 79.58333Q524.8751 80.291664,523.6668 80.291664L496.37515 80.291664Z" fill="#999999" transform="scale(1.0593519, 1.0593519), translate(113.276825, 315.4852)"/>
</svg>